<?xml version="1.0" standalone="no"?><!DOCTYPE svg PUBLIC "-//W3C//DTD SVG 1.1//EN" "http://www.w3.org/Graphics/SVG/1.1/DTD/svg11.dtd"><svg t="1560509823449" class="icon" style="" viewBox="0 0 1024 1024" version="1.1" xmlns="http://www.w3.org/2000/svg" p-id="2042" xmlns:xlink="http://www.w3.org/1999/xlink" width="32" height="32"><defs><style type="text/css">html, * { -moz-user-select: text !important; }
</style></defs><path d="M426.666667 170.666667H170.666667c-47.36 0-85.333333 37.973333-85.333334 85.333333v512c0 46.805333 38.528 85.333333 85.333334 85.333333h682.666666c46.805333 0 85.333333-38.528 85.333334-85.333333V341.333333a85.333333 85.333333 0 0 0-85.333334-85.333333h-341.333333l-85.333333-85.333333z" fill="#0277BD" p-id="2043"></path><path d="M694.4 900.906667l-108.288 0.085333V738.56l-81.194667 104.149333-81.194666-104.149333v162.432H315.434667v-324.821333h108.288l81.194666 108.288 81.194667-108.288 108.288-0.128zM856.064 927.957333L721.493333 738.56h81.194667v-162.389333h108.288v162.389333h81.194667z" fill="#B3E5FC" p-id="2044"></path></svg>