<?xml version="1.0" standalone="no"?><!DOCTYPE svg PUBLIC "-//W3C//DTD SVG 1.1//EN" "http://www.w3.org/Graphics/SVG/1.1/DTD/svg11.dtd"><svg t="1535945042908" class="icon" style="" viewBox="0 0 1024 1024" version="1.1" xmlns="http://www.w3.org/2000/svg" p-id="2024" xmlns:xlink="http://www.w3.org/1999/xlink" width="16" height="16"><defs><style type="text/css">html, * { -moz-user-select: text !important; }
</style></defs><path d="M892.500549 782.759657 142.443711 782.759657c-14.794961 0-26.787086-11.727089-26.787086-26.154683L115.656625 194.355523c0-14.403035 11.992125-26.1291 26.787086-26.1291L892.500549 168.226422c14.795984 0 26.787086 11.726066 26.787086 26.1291L919.287635 756.604974C919.287635 771.032568 907.296533 782.759657 892.500549 782.759657zM505.089102 516.675486c10.457166 10.212596 27.420513 10.212596 37.877679 0l330.156442-322.319963L174.943916 194.355523 505.089102 516.675486zM624.758622 473.812259c31.022551 23.520693 203.908086 154.479327 267.741927 202.825428L892.500549 212.45167C834.173119 269.39559 708.467115 392.101259 624.758622 473.812259zM142.443711 743.529167c0 7.213285 6.001691 13.075807 13.387915 13.075807l723.270774 0c7.396457 0 13.398148-5.862521 13.398148-13.075807l0-34.230616L605.912391 492.208235c-37.554314 36.643572-62.946634 61.446467-62.946634 61.446467-10.457166 10.213619-27.420513 10.213619-37.877679 0l-68.668962-67.043952-293.975405 222.686778L142.443711 743.529167zM142.443711 676.637688c64.053851-48.530296 223.817532-169.551604 275.128151-208.388121L144.198681 201.348798c-1.016143 1.86958-1.753947 3.854794-1.753947 6.082532L142.444734 676.637688z" fill="#1296db" p-id="2025"></path></svg>