<?xml version="1.0" standalone="no"?><!DOCTYPE svg PUBLIC "-//W3C//DTD SVG 1.1//EN" "http://www.w3.org/Graphics/SVG/1.1/DTD/svg11.dtd"><svg t="1539267398266" class="icon" style="" viewBox="0 0 1024 1024" version="1.1" xmlns="http://www.w3.org/2000/svg" p-id="14941" xmlns:xlink="http://www.w3.org/1999/xlink" width="48" height="48"><defs><style type="text/css">html, * { -moz-user-select: text !important; }
</style></defs><path d="M559.588734 35.409799c48.836923 52.272473 86.973349 111.828071 115.681704 177.376189 34.700876 78.40568 51.842272 159.81671 47.988639 245.929657-0.430201 7.283124 2.138888 11.573018 7.277065 15.856852 16.711195 13.281704 33.422391 27.417751 49.703385 41.129657 39.414911 31.707645 55.271763 73.261444 47.128236 122.534627-8.99787 52.702675-20.564828 105.39929-31.707645 157.671763-7.283124 32.98613-43.268544 45.843692-68.977609 24.418462a3679.96516 3679.96516 0 0 1-87.833752-74.976189c-14.566249-12.851503-14.136047-13.281704-29.132497-1.714746-39.845112 30.417041-83.549917 41.559858-132.817041 29.992899-25.278864-5.574438-47.128237-17.99574-66.838722-34.276733-5.99858-5.144237-9.428071-4.283834-14.566248 0.854343-29.992899 26.563408-60.409941 53.563077-90.826983 79.690225-26.139266 22.709775-62.985089 9.858272-70.698414-23.564119-5.574438-23.564118-10.282414-47.128237-15.850793-70.692355L201.406864 649.80374c-10.282414-46.267834 0.424142-87.827692 34.276734-121.674225 19.280284-19.280284 41.559858-35.567337 62.548828-52.272474 3.859692-2.99929 5.99858-5.99858 5.574438-11.573017-4.283834-94.256473 17.135337-182.514367 57.410651-267.348829 22.709775-47.558438 50.557728-92.541728 83.980118-133.677444 17.135337-20.564828 35.125018-40.269254 57.404592-55.695905 11.99716-8.567669 12.857562-8.567669 24.418461-0.424142 11.573018 8.991811 23.146036 17.99574 32.568048 28.272095z m17.135337 232.217751c-32.98613-33.846533-89.542438-34.700876-122.964828-2.138887-34.700876 33.846533-39.845112 88.688095-1.708687 127.678864 31.271385 32.98613 90.40284 32.98613 122.958769 0.424142 17.141396-16.280994 26.993609-38.98471 26.569468-62.548829 0.854343-23.99432-8.143527-46.704095-24.854722-63.41529z" fill="#5191FE" p-id="14942"></path><path d="M396.778793 828.894675c8.137467-8.137467 16.711195-8.99787 28.278154-3.423432 44.98329 21.849373 91.687385 25.703006 140.530367 11.997159 10.712615-2.99929 20.99503-7.283124 30.847242-11.997159 17.99574-8.567669 33.846533 1.284544 34.276734 21.419171 0.424142 29.568757 0 59.125396 0.424142 88.688095 0 9.428071-2.993231 17.571598-12.421302 21.855432-9.428071 4.283834-17.99574 2.569089-25.709065-4.283834-5.138178-4.289893-8.99787-8.99787-13.705846-13.711906-8.573728-8.567669-8.99787-8.143527-14.142107 2.138888l-32.992189 66.40852c-2.99929 6.428781-7.707266 11.99716-14.99039 14.142107-10.712615 2.99929-20.570888-1.714746-26.569468-12.851503-11.566959-22.709775-22.703716-44.989349-34.270674-67.699124-4.714036-9.852213-5.574438-9.852213-13.281705-2.138888-4.714036 4.714036-9.428071 9.422012-14.996449 14.136048-7.283124 6.422722-15.856852 8.143527-24.848663 4.283834-8.99787-3.853633-12.857562-11.136757-12.857562-20.564829v-92.541727c0-6.858982 2.144947-12.421302 6.422722-15.856852" fill="#FFAF32" p-id="14943"></path></svg>